M48
INCH,TZ
T1C0.016
T2C0.040
T3C0.043
%
G90
G05
T1
X40000Y-24250
X41000Y-24750
X42000Y-25000
X43000Y-25750
X44000Y-26500
X45000Y-26750
X46000Y-27500
X47000Y-27750
X48000Y-28250
X49000Y-28500
X50000Y-29250
X50500Y-27250
X51000Y-23750
X51500Y-26250
X52000Y-24000
X52500Y-25500
X53000Y-28000
X54000Y-29500
X54500Y-27000
X55000Y-28750
X55000Y-29750
X56000Y-30000
X57500Y-26000
X58000Y-29000
X58500Y-25250
X59000Y-29750
X59500Y-26750
X60000Y-30000
X61500Y-27750
X62000Y-25750
X62500Y-28500
X63000Y-24250
X63000Y-29500
X64000Y-25000
X64500Y-26500
X65500Y-27500
X66000Y-24750
X66500Y-28250
X67000Y-24500
X67000Y-28750
X68000Y-29250
X69000Y-29000
X70000Y-28000
X71000Y-27250
X72000Y-27000
X73000Y-26250
X74000Y-26000
X75000Y-25500
X76000Y-25250
X77000Y-24500
X78000Y-24000
X79000Y-23750
X88750Y-26250
T2
X50500Y-21000
X50500Y-22000
X51500Y-21000
X51500Y-22000
X52500Y-21000
X52500Y-22000
X53500Y-21000
X53500Y-22000
X54500Y-21000
X54500Y-22000
X55500Y-21000
X55500Y-22000
X56500Y-21000
X56500Y-22000
X57500Y-21000
X57500Y-22000
X58500Y-21000
X58500Y-22000
X59500Y-21000
X59500Y-22000
X60500Y-21000
X60500Y-22000
X61500Y-21000
X61500Y-22000
X62500Y-21000
X62500Y-22000
X63500Y-21000
X63500Y-22000
X64500Y-21000
X64500Y-22000
X65500Y-21000
X65500Y-22000
X66500Y-21000
X66500Y-22000
X67500Y-21000
X67500Y-22000
X68500Y-21000
X68500Y-22000
X69500Y-21000
X69500Y-22000
T3
X20000Y-39500
X20000Y-40500
X20000Y-42500
X20000Y-43500
X22000Y-39500
X22000Y-40500
X22000Y-42500
X22000Y-43500
X25000Y-31500
X25000Y-32500
X25000Y-34500
X25000Y-35500
X25000Y-47500
X25000Y-48500
X25000Y-50500
X25000Y-51500
X27000Y-31500
X27000Y-32500
X27000Y-34500
X27000Y-35500
X27000Y-47500
X27000Y-48500
X27000Y-50500
X27000Y-51500
X30000Y-39500
X30000Y-40500
X30000Y-42500
X30000Y-43500
X32000Y-39500
X32000Y-40500
X32000Y-42500
X32000Y-43500
X35000Y-39500
X35000Y-40500
X35000Y-42500
X35000Y-43500
X35000Y-47500
X35000Y-48500
X35000Y-50500
X35000Y-51500
X37000Y-39500
X37000Y-40500
X37000Y-42500
X37000Y-43500
X37000Y-47500
X37000Y-48500
X37000Y-50500
X37000Y-51500
X40000Y-39500
X40000Y-40500
X40000Y-42500
X40000Y-43500
X40000Y-47500
X40000Y-48500
X40000Y-50500
X40000Y-51500
X42000Y-39500
X42000Y-40500
X42000Y-42500
X42000Y-43500
X42000Y-47500
X42000Y-48500
X42000Y-50500
X42000Y-51500
X45000Y-39500
X45000Y-40500
X45000Y-42500
X45000Y-43500
X45000Y-47500
X45000Y-48500
X45000Y-50500
X45000Y-51500
X47000Y-39500
X47000Y-40500
X47000Y-42500
X47000Y-43500
X47000Y-47500
X47000Y-48500
X47000Y-50500
X47000Y-51500
X50000Y-47500
X50000Y-48500
X50000Y-50500
X50000Y-51500
X52000Y-47500
X52000Y-48500
X52000Y-50500
X52000Y-51500
X55000Y-31500
X55000Y-32500
X55000Y-34500
X55000Y-35500
X55000Y-39500
X55000Y-40500
X55000Y-42500
X55000Y-43500
X57000Y-31500
X57000Y-32500
X57000Y-34500
X57000Y-35500
X57000Y-39500
X57000Y-40500
X57000Y-42500
X57000Y-43500
X63000Y-39500
X63000Y-40500
X63000Y-42500
X63000Y-43500
X65000Y-39500
X65000Y-40500
X65000Y-42500
X65000Y-43500
X68000Y-31500
X68000Y-32500
X68000Y-34500
X68000Y-35500
X68000Y-47500
X68000Y-48500
X68000Y-50500
X68000Y-51500
X70000Y-31500
X70000Y-32500
X70000Y-34500
X70000Y-35500
X70000Y-47500
X70000Y-48500
X70000Y-50500
X70000Y-51500
X73000Y-39500
X73000Y-40500
X73000Y-42500
X73000Y-43500
X75000Y-39500
X75000Y-40500
X75000Y-42500
X75000Y-43500
X78000Y-39500
X78000Y-40500
X78000Y-42500
X78000Y-43500
X78000Y-47500
X78000Y-48500
X78000Y-50500
X78000Y-51500
X80000Y-39500
X80000Y-40500
X80000Y-42500
X80000Y-43500
X80000Y-47500
X80000Y-48500
X80000Y-50500
X80000Y-51500
X83000Y-39500
X83000Y-40500
X83000Y-42500
X83000Y-43500
X83000Y-47500
X83000Y-48500
X83000Y-50500
X83000Y-51500
X84750Y-22000
X84750Y-23000
X84750Y-25000
X84750Y-26000
X85000Y-39500
X85000Y-40500
X85000Y-42500
X85000Y-43500
X85000Y-47500
X85000Y-48500
X85000Y-50500
X85000Y-51500
X86750Y-22000
X86750Y-23000
X86750Y-25000
X86750Y-26000
X88000Y-39500
X88000Y-40500
X88000Y-42500
X88000Y-43500
X88000Y-47500
X88000Y-48500
X88000Y-50500
X88000Y-51500
X88750Y-22000
X88750Y-23000
X88750Y-25000
X88750Y-26000
X90000Y-39500
X90000Y-40500
X90000Y-42500
X90000Y-43500
X90000Y-47500
X90000Y-48500
X90000Y-50500
X90000Y-51500
X92500Y-22000
X92500Y-23000
X92500Y-25000
X92500Y-26000
X93000Y-47500
X93000Y-48500
X93000Y-50500
X93000Y-51500
X94500Y-22000
X94500Y-23000
X94500Y-25000
X94500Y-26000
X95000Y-47500
X95000Y-48500
X95000Y-50500
X95000Y-51500
X96500Y-22000
X96500Y-23000
X96500Y-25000
X96500Y-26000
X98000Y-31500
X98000Y-32500
X98000Y-34500
X98000Y-35500
X98000Y-39500
X98000Y-40500
X98000Y-42500
X98000Y-43500
X100000Y-31500
X100000Y-32500
X100000Y-34500
X100000Y-35500
X100000Y-39500
X100000Y-40500
X100000Y-42500
X100000Y-43500
T0
M30
